<?xml version="1.0" ?><svg viewBox="0 0 64 64" xmlns="http://www.w3.org/2000/svg"><defs><style>.cls-1{fill:#dbeffc;}.cls-2{fill:none;}.cls-2,.cls-6,.cls-7,.cls-8{stroke:#4c241d;stroke-linecap:round;stroke-linejoin:round;stroke-width:2px;}.cls-3{fill:#4c241d;}.cls-4{fill:#e66353;}.cls-5{fill:#a9ba5a;}.cls-6{fill:#fff;}.cls-7{fill:#b5a19c;}.cls-8{fill:#6b4f5b;}</style></defs><g id="coupon"><path class="cls-1" d="M55,37.5C55,49.3741,45.3741,60,33.5,60S12,49.3741,12,37.5a21.5,21.5,0,0,1,43,0Z"/><circle class="cls-2" cx="9" cy="41" r="2"/><circle class="cls-3" cx="21.0992" cy="35.5232" r="1.0691"/><line class="cls-2" x1="53.5509" x2="56.5509" y1="39.0547" y2="42.0547"/><rect class="cls-4" height="22" width="24" x="36" y="7"/><rect class="cls-5" height="22" width="33" x="3" y="7"/><line class="cls-2" x1="56.5509" x2="53.5509" y1="39.0547" y2="42.0547"/><rect class="cls-2" height="22" width="57" x="3" y="7"/><polygon class="cls-6" points="27 22 13 22 11 14 29 14 27 22"/><circle class="cls-7" cx="15.5" cy="24.5" r="1.5"/><circle class="cls-7" cx="24.5" cy="24.5" r="1.5"/><polyline class="cls-2" points="7 10 10 10 11 14"/><line class="cls-2" x1="53" x2="45" y1="13" y2="23"/><circle class="cls-2" cx="45.5" cy="14.5" r="1.5"/><polygon class="cls-7" points="32 46 34 37 30 37 27 44 32 46"/><circle class="cls-2" cx="52.5" cy="21.5" r="1.5"/><path class="cls-7" d="M36,29H31.4253L30,37a14.55,14.55,0,0,1,11.5876,9.1149l2.7945-.6968L36,5V9"/><line class="cls-2" x1="36" x2="36" y1="12" y2="14"/><line class="cls-2" x1="36" x2="36" y1="17" y2="19"/><line class="cls-2" x1="36" x2="36" y1="22" y2="24"/><line class="cls-2" x1="36" x2="36" y1="27" y2="29"/><circle class="cls-8" cx="36" cy="33.5" r="1.5"/><path class="cls-8" d="M28,44a7,7,0,1,0,7,7A7,7,0,0,0,28,44Zm0,11a4,4,0,1,1,4-4A4,4,0,0,1,28,55Z"/><path class="cls-8" d="M45,44a7,7,0,1,0,7,7A7,7,0,0,0,45,44Zm0,11a4,4,0,1,1,4-4A4,4,0,0,1,45,55Z"/></g></svg>