<?xml version="1.0" encoding="utf-8"?>
<!-- Generator: Adobe Illustrator 22.0.0, SVG Export Plug-In . SVG Version: 6.00 Build 0)  -->
<svg version="1.1" id="Layer_1" xmlns="http://www.w3.org/2000/svg" xmlns:xlink="http://www.w3.org/1999/xlink" x="0px" y="0px"
	 viewBox="0 0 32 32" style="enable-background:new 0 0 32 32;" xml:space="preserve">
<g>
	<path d="M10,8h16c0.6,0,1-0.4,1-1s-0.4-1-1-1H10C9.4,6,9,6.4,9,7S9.4,8,10,8z"/>
	<path d="M10,16h16c0.6,0,1-0.4,1-1s-0.4-1-1-1H10c-0.6,0-1,0.4-1,1S9.4,16,10,16z"/>
	<path d="M10,24h16c0.6,0,1-0.4,1-1s-0.4-1-1-1H10c-0.6,0-1,0.4-1,1S9.4,24,10,24z"/>
	<path d="M4.8,9.6c1.5,0,2.8-1.3,2.8-2.8S6.3,4,4.8,4S2,5.3,2,6.8S3.3,9.6,4.8,9.6z"/>
	<circle cx="4.8" cy="15" r="2.8"/>
	<path d="M4.8,26c1.5,0,2.8-1.3,2.8-2.8s-1.3-2.8-2.8-2.8S2,21.7,2,23.2S3.3,26,4.8,26z"/>
</g>
</svg>
