<svg id="Layer_1" data-name="Layer 1" xmlns="http://www.w3.org/2000/svg" viewBox="0 0 48 48"><title>Eat</title><path d="M24,2A22,22,0,0,0,12.93,43.009l.84-11.749A6.5,6.5,0,0,1,9,25c0-3.59,1.5-11,6.5-11S22,21.41,22,25a6.5,6.5,0,0,1-4.77,6.26l1,13.97h0a22,22,0,0,0,11.54,0h0l1.09-15.37A4.988,4.988,0,0,1,27,25V15a1,1,0,0,1,2,0v5.75a1.25,1.25,0,0,0,2.5,0V15a1,1,0,0,1,2,0v5.75a1.25,1.25,0,0,0,2.5,0V15a1,1,0,0,1,2,0V25a4.988,4.988,0,0,1-3.86,4.86l.93,13.149A22,22,0,0,0,24,2Z" id="id_101" style="fill: rgb(255, 165, 0);"></path></svg>