<svg width="24" height="24" viewBox="0 0 24 24" fill="none" xmlns="http://www.w3.org/2000/svg">
<path fill-rule="evenodd" clip-rule="evenodd" d="M10.2062 1.37675C10.9396 -0.110608 13.0604 -0.110608 13.7938 1.37675L16.3884 6.63877L22.1691 7.50107C23.7993 7.74424 24.4521 9.74419 23.2793 10.9023L19.096 15.0332L20.0694 20.8451C20.3427 22.4769 18.6295 23.7159 17.1654 22.9453L12 20.2266L6.83459 22.9453C5.37052 23.7159 3.65727 22.4769 3.93056 20.8451L4.90397 15.0332L0.720659 10.9023C-0.452117 9.74419 0.200697 7.74424 1.83086 7.50107L7.61159 6.63877L10.2062 1.37675ZM12 2.26123L8.94231 8.4624L2.12593 9.47919L7.048 14.3396L5.90309 21.1755L12 17.9665L18.0969 21.1755L16.952 14.3396L21.874 9.47919L15.0577 8.4624L12 2.26123Z" fill="#ffa500" id="id_102"></path>
</svg>